# xmcd CD database file
#
# Track frame offsets:
#	150
#	22152
#	47747
#	69670
#
# Disc length: 1269 seconds
#
# Revision: 3
# Processed by: cddbd v1.5.2PL0 Copyright (c) Steve Scherf et al.
# Submitted via: CDex 1.70beta3
#
DISCID=3404f304
DTITLE=松任谷由実 - 輪舞曲(ロンド)
DYEAR=1995
DGENRE=Pop
TTITLE0=輪舞曲(ロンド)
TTITLE1=Midnight Scarecrow
TTITLE2=輪舞曲(Original Karaoke)
TTITLE3=Midnight Scarecrow(Original Karaoke)
EXTD=YEAR: 1995
EXTT0=
EXTT1=
EXTT2=
EXTT3=
PLAYORDER=
